<mxfile host="app.diagrams.net" modified="2023-06-16T11:37:01.573Z" agent="Mozilla/5.0 (Windows NT 10.0; Win64; x64) AppleWebKit/537.36 (KHTML, like Gecko) Chrome/114.0.0.0 Safari/537.36" version="21.4.0" etag="joSwlao_9z7XcGQYJBOJ" type="github">
  <diagram name="第 1 页" id="0K-UHDu_sLeA99YgPkpb">
    <mxGraphModel>
      <root>
        <mxCell id="0" />
        <mxCell id="1" parent="0" />
      </root>
    </mxGraphModel>
  </diagram>
</mxfile>
